HIERARCHY
ROOT Hips
{
	OFFSET -3.958830 18.904000 13.208200
	CHANNELS 6 Xposition Yposition Zposition Zrotation Yrotation Xrotation 
	JOINT LHipJoint
	{
		OFFSET 0.000000 0.000000 0.000000
		CHANNELS 3 Zrotation Yrotation Xrotation
		JOINT LeftUpLeg
		{
			OFFSET 1.800000 -1.400000 0.085000
			CHANNELS 3 Zrotation Yrotation Xrotation
			JOINT LeftLeg
			{
				OFFSET 2.215000 -6.000000 0.000000
				CHANNELS 3 Zrotation Yrotation Xrotation
				JOINT LeftFoot
				{
					OFFSET 2.500000 -6.900000 0.000000
					CHANNELS 3 Zrotation Yrotation Xrotation
					JOINT LeftToeBase
					{
						OFFSET 0.200000 -0.500000 1.950000
						CHANNELS 3 Zrotation Yrotation Xrotation
						End Site
						{
							OFFSET 0.000000 0.000000 0.000000
						}
					}
				}
			}
		}
	}
	JOINT RHipJoint
	{
		OFFSET 0.000000 0.000000 0.000000
		CHANNELS 3 Zrotation Yrotation Xrotation
		JOINT RightUpLeg
		{
			OFFSET -1.800000 -1.400000 0.085000
			CHANNELS 3 Zrotation Yrotation Xrotation
			JOINT RightLeg
			{
				OFFSET -2.215000 -6.000000 0.000000
				CHANNELS 3 Zrotation Yrotation Xrotation
				JOINT RightFoot
				{
					OFFSET -2.500000 -6.900000 0.000000
					CHANNELS 3 Zrotation Yrotation Xrotation
					JOINT RightToeBase
					{
						OFFSET -0.200000 -0.500000 1.950000
						CHANNELS 3 Zrotation Yrotation Xrotation
						End Site
						{
							OFFSET 0.000000 0.000000 0.000000
						}
					}
				}
			}
		}
	}
	JOINT LowerBack
	{
		OFFSET 0.000000 0.000000 0.000000
		CHANNELS 3 Zrotation Yrotation Xrotation
		JOINT Spine
		{
			OFFSET -0.087000 1.940000 -0.288900
			CHANNELS 3 Zrotation Yrotation Xrotation
			JOINT Spine1
			{
				OFFSET 0.000000 1.950000 0.060000
				CHANNELS 3 Zrotation Yrotation Xrotation
				JOINT Neck
				{
					OFFSET 0.000000 0.000000 0.000000
					CHANNELS 3 Zrotation Yrotation Xrotation
					JOINT Neck1
					{
						OFFSET 0.000000 1.600000 0.340000
						CHANNELS 3 Zrotation Yrotation Xrotation
						JOINT Head
						{
							OFFSET 0.000000 1.667000 -0.240000
							CHANNELS 3 Zrotation Yrotation Xrotation
							End Site
							{
								OFFSET 0.000000 0.000000 0.000000
							}
						}
					}
				}
				JOINT LeftShoulder
				{
					OFFSET 0.000000 0.000000 0.000000
					CHANNELS 3 Zrotation Yrotation Xrotation
					JOINT LeftArm
					{
						OFFSET 2.700000 1.550000 -0.730000
						CHANNELS 3 Zrotation Yrotation Xrotation
						JOINT LeftForeArm
						{
							OFFSET 5.450000 0.000000 0.000000
							CHANNELS 3 Zrotation Yrotation Xrotation
							JOINT LeftHand
							{
								OFFSET 3.450000 0.000000 0.000000
								CHANNELS 3 Zrotation Yrotation Xrotation
								JOINT LeftHandIndex1
								{
									OFFSET 0.750000 0.000000 0.000000
									CHANNELS 3 Zrotation Yrotation Xrotation
									End Site
									{
										OFFSET 0.000000 0.000000 0.000000
									}
								}
							}
						}
					}
				}
				JOINT RightShoulder
				{
					OFFSET 0.000000 0.000000 0.000000
					CHANNELS 3 Zrotation Yrotation Xrotation
					JOINT RightArm
					{
						OFFSET -2.700000 1.550000 -0.730000
						CHANNELS 3 Zrotation Yrotation Xrotation
						JOINT RightForeArm
						{
							OFFSET -5.450000 0.000000 0.000000
							CHANNELS 3 Zrotation Yrotation Xrotation
							JOINT RightHand
							{
								OFFSET -3.450000 0.000000 0.000000
								CHANNELS 3 Zrotation Yrotation Xrotation
								JOINT RightHandIndex1
								{
									OFFSET -0.750000 0.000000 0.000000
									CHANNELS 3 Zrotation Yrotation Xrotation
									End Site
									{
										OFFSET 0.000000 0.000000 0.000000
									}
								}
							}
						}
					}
				}
			}
		}
	}
}
MOTION
Frames: 6
Frame Time: 0.016667
-0.434420 16.986540 -2.568250 -6.627057 -6.237759 -0.764164 -15.117807 12.622732 3.776966 5.540534 -4.325048 -28.259445 -6.818959 13.032060 43.536097 0.256032 8.870678 1.582538 -0.264750 -0.729200 -0.103980 18.332739 -11.339412 2.352199 -2.435032 3.474978 -18.705740 -4.615495 -3.889549 34.383631 -0.090661 -4.856480 2.806145 -0.353840 0.730020 0.200250 -3.633023 -0.165814 -7.501026 6.558150 5.656928 11.100518 2.533118 5.461190 11.221162 1.326089 2.747548 -10.101854 2.975798 -1.471877 50.239601 -3.659400 0.442700 11.942950 -4.518001 2.987782 2.823218 -44.385757 -4.749506 -6.076311 -1.744875 -66.134654 -1.216839 -3.878287 3.238713 0.355770 0.444610 -0.404560 0.045910 2.661279 -2.676902 6.701529 57.163031 3.148112 -9.341004 29.061969 88.739896 18.055603 1.888318 -1.929750 -0.433680 0.248540 0.380230 -0.133420 
-0.453790 16.875250 -2.576330 -7.157443 -5.639778 -0.764053 -15.099817 12.297227 4.116085 6.376671 -5.053722 -29.842470 -10.700033 15.135562 44.284053 0.402615 9.585340 1.325882 -0.230960 -0.692760 -0.061770 18.394417 -11.252041 2.255960 -2.144664 3.346287 -18.269923 -5.267008 -3.723699 34.444891 -0.113834 -4.879682 2.783034 -0.330180 0.689850 0.214690 -3.774875 0.015467 -7.650132 8.284646 5.560350 11.547425 2.326222 5.543502 11.118720 1.459245 3.383500 -9.813941 4.088362 -2.618304 50.200195 -4.352050 0.500390 11.012890 -5.363694 2.454098 2.655282 -42.293579 -5.296991 -5.463927 -1.709370 -68.079862 -1.177007 -3.883298 3.261552 0.358310 0.439360 -0.388370 0.027860 3.124570 -2.819318 6.281101 55.676972 2.816689 -11.371883 15.061842 85.077361 5.878948 1.789551 -1.846832 -0.416910 0.225910 0.371400 -0.153540 
-0.466000 16.748890 -2.578780 -7.781575 -4.693005 -0.818516 -15.067533 11.911886 4.497294 8.173688 -5.723423 -31.762523 -14.706518 17.565395 45.410245 0.600645 10.492039 1.030860 -0.215970 -0.673000 -0.051900 18.481106 -11.135219 2.163507 -1.973987 3.300242 -17.946326 -5.076692 -4.011799 35.279368 -0.150599 -5.052129 2.714911 -0.310630 0.681490 0.225590 -3.981612 0.244504 -7.840285 10.562823 5.190315 12.096572 1.720232 5.496886 10.577844 1.600862 3.924905 -9.359126 5.076601 -3.710641 49.682029 -4.754040 0.282460 10.619130 -6.485996 2.154976 2.293429 -40.373702 -6.304063 -4.492034 -2.240723 -69.867550 -0.644701 -3.903763 3.286262 0.350000 0.448460 -0.389600 0.024650 3.777860 -3.179103 5.771858 54.231421 2.514610 -12.346738 7.027340 81.424664 -0.058449 1.741849 -1.762076 -0.412300 0.214710 0.369250 -0.159900 
-0.464150 16.623760 -2.581460 -8.410412 -3.710675 -0.938635 -15.031821 11.469053 4.941927 11.066377 -6.182119 -33.937093 -18.972006 20.578891 47.032575 0.888447 11.604035 0.703272 -0.193450 -0.635520 -0.040200 18.586320 -10.978520 2.058825 -1.842361 3.322674 -17.760618 -4.765830 -4.441597 36.804848 -0.216196 -5.317320 2.616318 -0.288770 0.677510 0.230330 -4.222951 0.488429 -8.070545 13.295467 4.551392 12.811639 0.756626 5.347607 9.755869 1.762429 4.200921 -8.776550 5.497465 -4.700584 48.939196 -5.076200 -0.177400 10.218500 -8.388961 1.826591 1.839778 -38.339515 -7.085351 -3.663110 -3.063800 -71.712656 0.142944 -3.917441 3.303109 0.330050 0.450700 -0.382350 0.038120 5.103868 -3.349082 5.203648 52.183645 1.983756 -12.803735 3.141489 77.837685 -2.201962 1.738968 -1.707149 -0.399090 0.215450 0.348700 -0.149720 
-0.461730 16.505730 -2.579750 -8.944213 -3.290755 -1.182140 -15.032501 11.004925 5.461855 15.368302 -5.971705 -35.923667 -24.152518 24.570193 48.412506 1.214745 12.894997 0.347088 -0.201630 -0.657330 -0.034560 18.670868 -10.724057 1.968289 -1.595998 3.605219 -17.876533 -4.431886 -4.971778 39.146828 -0.294114 -5.678143 2.495597 -0.296780 0.691810 0.226980 -4.379263 0.625600 -8.371886 15.721077 3.836675 13.900689 0.020984 5.322652 8.509125 1.860219 4.056879 -8.359651 5.168792 -5.094736 48.596167 -5.106830 -0.519470 10.073630 -10.028257 1.927674 1.542633 -37.960347 -7.318855 -3.152842 -3.099173 -73.916876 0.245342 -3.934745 3.280337 0.342280 0.452580 -0.388360 0.036760 6.275963 -3.448013 4.717987 50.363871 1.413678 -13.131207 0.439499 73.995824 -3.118965 1.739568 -1.625354 -0.414790 0.234880 0.356910 -0.155920 
-0.446470 16.414010 -2.564000 -9.220459 -2.573196 -1.818731 -15.057716 10.644587 5.952882 19.814482 -5.381736 -37.082158 -29.020343 28.401960 49.186245 1.524264 13.855745 0.085859 -0.193170 -0.645520 -0.041730 18.720788 -10.488125 1.856711 -1.725953 3.715803 -17.712615 -4.101774 -5.592731 41.569976 -0.382385 -6.073463 2.356509 -0.301510 0.662090 0.215150 -4.446787 0.630395 -8.661600 17.626042 2.977246 15.149820 -0.244801 5.249788 6.956166 1.812293 3.585232 -8.111136 4.195040 -5.198226 49.291791 -4.561140 -1.082320 10.521980 -11.599494 2.241949 1.472815 -38.998155 -7.436511 -2.597044 -4.318694 -76.532090 1.131076 -3.900375 3.320031 0.342700 0.423820 -0.381690 0.037180 7.707771 -3.321954 4.200341 48.115308 0.904644 -12.994134 -0.843363 68.668423 -2.746022 1.785350 -1.574829 -0.397520 0.210100 0.345640 -0.150980 
